<?xml version="1.0" standalone="no"?>
<!DOCTYPE svg PUBLIC "-//W3C//DTD SVG 20010904//EN"
 "http://www.w3.org/TR/2001/REC-SVG-20010904/DTD/svg10.dtd">
<svg version="1.0" xmlns="http://www.w3.org/2000/svg"
 width="1685.000000pt" height="1973.000000pt" viewBox="0 0 1685.000000 1973.000000"
 preserveAspectRatio="xMidYMid meet">
<metadata>
Created by potrace 1.16, written by Peter Selinger 2001-2019
</metadata>
<g transform="translate(0.000000,1973.000000) scale(0.100000,-0.100000)"
fill="#000000" stroke="none">
<path d="M8330 19719 c-685 -93 -1276 -349 -1830 -794 -151 -121 -398 -360
-528 -510 -613 -711 -1019 -1659 -1177 -2745 -62 -428 -79 -738 -72 -1265 8
-591 55 -1069 164 -1684 40 -230 39 -283 -13 -390 -46 -94 -121 -158 -259
-220 -357 -160 -678 -366 -1015 -650 -171 -144 -438 -414 -595 -601 -71 -85
-156 -181 -187 -212 -31 -31 -60 -67 -63 -80 -15 -46 -47 -101 -84 -141 -21
-23 -48 -61 -60 -85 -12 -23 -44 -67 -71 -97 -28 -31 -50 -59 -50 -64 0 -5
-23 -35 -51 -66 -57 -62 -100 -129 -146 -226 -16 -36 -44 -81 -62 -101 -17
-20 -31 -40 -31 -45 0 -5 -15 -35 -34 -66 -19 -31 -37 -70 -41 -86 -3 -16 -22
-55 -42 -88 -19 -32 -51 -94 -70 -138 -20 -44 -50 -102 -68 -130 -59 -92 -73
-120 -104 -205 -17 -47 -43 -107 -58 -135 -14 -27 -48 -91 -75 -142 -60 -113
-90 -192 -117 -306 -12 -50 -41 -128 -70 -184 -27 -54 -63 -138 -80 -186 -17
-48 -36 -98 -43 -110 -7 -12 -22 -51 -34 -87 -12 -36 -60 -173 -106 -305 -385
-1090 -726 -2456 -1018 -4070 -65 -363 -240 -1395 -240 -1419 0 -16 261 -208
475 -349 1247 -820 2869 -1360 4755 -1581 279 -33 733 -73 963 -86 100 -5 207
-12 237 -15 109 -11 713 -35 1155 -46 486 -13 1542 -7 2000 11 841 32 1662 90
2145 151 1862 234 3466 777 4671 1581 198 132 449 319 449 333 0 26 -184 1116
-245 1450 -396 2173 -857 3813 -1451 5161 -105 239 -340 712 -457 919 -692
1234 -1507 2064 -2442 2487 -116 52 -149 72 -196 118 -65 65 -106 142 -121
232 -9 57 -7 85 16 214 56 324 99 667 128 1034 19 249 16 994 -5 1235 -104
1159 -417 2119 -962 2946 -667 1010 -1646 1711 -2565 1835 -116 15 -127 15
-220 3z m361 -1425 c225 -31 416 -92 645 -204 408 -200 782 -537 1076 -970 47
-69 109 -165 138 -215 62 -105 176 -349 189 -403 5 -20 34 -89 64 -152 58
-120 124 -334 172 -556 15 -66 35 -159 46 -209 17 -73 21 -135 24 -330 2 -132
6 -285 10 -340 22 -360 -99 -929 -291 -1364 -285 -648 -749 -1184 -1399 -1616
-205 -136 -351 -220 -590 -337 -211 -104 -254 -118 -351 -118 -94 0 -131 13
-349 120 -422 207 -776 455 -1096 768 -357 349 -614 712 -814 1150 -576 1262
-429 2794 366 3822 97 126 310 343 434 443 339 274 753 455 1165 511 146 19
423 20 561 0z m-2790 -7080 c94 -28 128 -52 262 -187 167 -167 276 -245 502
-357 348 -173 732 -273 1240 -322 194 -18 692 -16 903 6 713 71 1339 276 1715
563 34 26 103 88 154 139 103 104 151 136 238 158 195 51 389 -43 478 -232 29
-61 32 -75 32 -168 0 -95 -2 -104 -37 -175 -81 -163 -368 -407 -690 -587 -972
-544 -2489 -703 -3693 -387 -585 153 -1064 411 -1405 756 -138 139 -181 202
-206 299 -75 296 216 580 507 494z m2581 -2141 c123 -58 203 -160 232 -295 8
-35 23 -84 35 -109 12 -26 25 -73 30 -105 5 -33 19 -84 30 -114 11 -30 20 -70
21 -87 0 -18 11 -66 25 -107 14 -41 25 -92 25 -113 1 -21 9 -63 20 -93 11 -30
20 -77 20 -105 0 -27 7 -72 15 -99 8 -27 15 -70 15 -96 0 -26 7 -63 15 -83 14
-33 29 -144 44 -317 3 -41 10 -81 15 -89 5 -8 13 -62 18 -120 5 -58 13 -151
18 -206 6 -55 15 -143 20 -195 12 -129 48 -743 56 -965 9 -241 10 -1017 2
-1340 -8 -288 -43 -1036 -54 -1130 -4 -33 -8 -89 -9 -125 -2 -74 -17 -244 -55
-620 -18 -177 -29 -293 -39 -397 -5 -57 -13 -108 -17 -115 -4 -7 -11 -51 -16
-98 -18 -202 -27 -277 -37 -303 -6 -16 -11 -50 -11 -76 0 -26 -6 -71 -14 -101
-7 -30 -16 -84 -19 -120 -3 -36 -13 -85 -21 -109 -9 -24 -16 -63 -16 -86 0
-24 -9 -72 -20 -107 -11 -34 -20 -79 -20 -99 0 -20 -7 -58 -16 -85 -8 -27 -19
-83 -24 -124 -28 -227 -243 -397 -454 -359 -171 31 -299 155 -338 327 -12 56
-8 97 25 232 35 143 47 207 47 242 0 20 9 65 20 100 11 34 20 81 20 104 0 22
7 63 15 90 8 27 15 69 15 94 0 25 5 61 11 80 11 34 21 114 38 296 5 51 12 97
16 104 4 7 12 56 17 109 5 53 13 137 18 186 5 50 14 135 20 190 10 95 14 141
40 400 6 61 13 128 15 150 5 38 19 260 30 465 3 52 7 133 10 180 2 47 6 135 9
195 2 61 7 169 10 240 19 464 24 1148 11 1525 -13 348 -15 391 -20 480 -3 47
-7 128 -10 180 -5 91 -13 183 -35 413 -35 355 -48 467 -60 522 -6 28 -8 60 -5
73 3 12 -1 46 -10 74 -8 28 -15 73 -15 99 0 25 -7 62 -15 81 -8 20 -17 66 -21
104 -3 38 -12 91 -20 118 -8 27 -14 66 -14 85 -1 20 -9 61 -20 91 -11 30 -19
72 -20 93 0 21 -7 52 -16 69 -9 17 -22 63 -30 102 -7 39 -22 96 -33 126 -11
30 -20 65 -21 76 0 12 -12 48 -27 80 -24 51 -28 71 -28 154 0 86 3 101 31 161
53 112 128 178 249 222 78 28 193 19 277 -20z m-5218 -2491 c122 -57 191 -142
242 -298 110 -338 461 -676 983 -948 185 -97 264 -190 293 -343 33 -178 -81
-375 -258 -448 -126 -51 -268 -123 -349 -175 -282 -185 -498 -445 -660 -795
-75 -161 -78 -167 -144 -228 -75 -69 -147 -99 -252 -105 -131 -7 -240 38 -329
134 -43 47 -64 87 -120 234 -91 239 -208 428 -360 581 -159 162 -326 261 -545
324 -114 33 -162 56 -218 105 -97 86 -142 194 -135 329 8 174 96 293 274 371
303 132 491 249 654 406 174 168 273 326 344 546 51 161 116 247 226 303 106
55 247 57 354 7z m10341 24 c151 -40 246 -137 305 -310 59 -175 145 -311 294
-464 185 -191 457 -381 765 -537 75 -37 146 -112 184 -192 42 -92 50 -210 18
-304 -40 -121 -133 -214 -265 -264 -114 -45 -279 -132 -373 -198 -116 -82
-289 -250 -373 -362 -95 -127 -142 -206 -232 -393 -51 -105 -94 -179 -119
-207 -88 -96 -200 -141 -328 -133 -103 7 -178 38 -247 101 -72 66 -90 95 -149
247 -137 355 -314 599 -547 756 -96 64 -257 138 -368 169 -122 35 -178 65
-241 132 -89 94 -133 228 -111 343 22 118 84 217 176 279 23 15 82 44 131 65
512 216 829 520 960 922 45 136 76 193 135 248 107 100 251 138 385 102z"/>
<path d="M2995 5212 c-66 -69 -155 -154 -197 -190 -43 -35 -78 -69 -78 -75 1
-7 21 -28 46 -47 64 -49 243 -237 300 -315 26 -36 51 -65 54 -65 4 0 38 37 77
83 75 86 184 194 292 288 l63 55 -93 74 c-52 41 -150 129 -219 196 l-125 121
-120 -125z"/>
<path d="M13480 5294 c-43 -56 -239 -246 -303 -294 -25 -19 -46 -42 -47 -50 0
-8 28 -37 61 -65 75 -61 202 -196 272 -287 29 -38 59 -68 68 -68 9 0 24 12 34
26 27 41 239 256 316 320 38 32 69 63 69 69 0 5 -33 35 -72 65 -40 30 -136
117 -214 193 -78 75 -143 137 -145 137 -2 -1 -20 -21 -39 -46z"/>
</g>
</svg>
